<svg aria-roledescription="er" viewBox="0 0 469.83984375 298.3671875" style="max-width: 469.84px; background-color: white;" xmlns:xlink="http://www.w3.org/1999/xlink" xmlns="http://www.w3.org/2000/svg" width="100%" id="mermaid-0"><style>#mermaid-0{font-family:"trebuchet ms",verdana,arial,sans-serif;font-size:16px;fill:#000000;}#mermaid-0 .error-icon{fill:#552222;}#mermaid-0 .error-text{fill:#552222;stroke:#552222;}#mermaid-0 .edge-thickness-normal{stroke-width:2px;}#mermaid-0 .edge-thickness-thick{stroke-width:3.5px;}#mermaid-0 .edge-pattern-solid{stroke-dasharray:0;}#mermaid-0 .edge-pattern-dashed{stroke-dasharray:3;}#mermaid-0 .edge-pattern-dotted{stroke-dasharray:2;}#mermaid-0 .marker{fill:#000000;stroke:#000000;}#mermaid-0 .marker.cross{stroke:#000000;}#mermaid-0 svg{font-family:"trebuchet ms",verdana,arial,sans-serif;font-size:16px;}#mermaid-0 .entityBox{fill:#cde498;stroke:#13540c;}#mermaid-0 .attributeBoxOdd{fill:#ffffff;stroke:#13540c;}#mermaid-0 .attributeBoxEven{fill:#f2f2f2;stroke:#13540c;}#mermaid-0 .relationshipLabelBox{fill:hsl(78.1578947368, 58.4615384615%, 84.5098039216%);opacity:0.7;background-color:hsl(78.1578947368, 58.4615384615%, 84.5098039216%);}#mermaid-0 .relationshipLabelBox rect{opacity:0.5;}#mermaid-0 .relationshipLine{stroke:#000000;}#mermaid-0 .entityTitleText{text-anchor:middle;font-size:18px;fill:#000000;}#mermaid-0 :root{--mermaid-font-family:"trebuchet ms",verdana,arial,sans-serif;}</style><g/><defs><marker orient="auto" markerHeight="18" markerWidth="18" refY="9" refX="0" id="ONLY_ONE_START"><path d="M9,0 L9,18 M15,0 L15,18" fill="none" stroke="gray"/></marker></defs><defs><marker orient="auto" markerHeight="18" markerWidth="18" refY="9" refX="18" id="ONLY_ONE_END"><path d="M3,0 L3,18 M9,0 L9,18" fill="none" stroke="gray"/></marker></defs><defs><marker orient="auto" markerHeight="18" markerWidth="30" refY="9" refX="0" id="ZERO_OR_ONE_START"><circle r="6" cy="9" cx="21" fill="white" stroke="gray"/><path d="M9,0 L9,18" fill="none" stroke="gray"/></marker></defs><defs><marker orient="auto" markerHeight="18" markerWidth="30" refY="9" refX="30" id="ZERO_OR_ONE_END"><circle r="6" cy="9" cx="9" fill="white" stroke="gray"/><path d="M21,0 L21,18" fill="none" stroke="gray"/></marker></defs><defs><marker orient="auto" markerHeight="36" markerWidth="45" refY="18" refX="18" id="ONE_OR_MORE_START"><path d="M0,18 Q 18,0 36,18 Q 18,36 0,18 M42,9 L42,27" fill="none" stroke="gray"/></marker></defs><defs><marker orient="auto" markerHeight="36" markerWidth="45" refY="18" refX="27" id="ONE_OR_MORE_END"><path d="M3,9 L3,27 M9,18 Q27,0 45,18 Q27,36 9,18" fill="none" stroke="gray"/></marker></defs><defs><marker orient="auto" markerHeight="36" markerWidth="57" refY="18" refX="18" id="ZERO_OR_MORE_START"><circle r="6" cy="18" cx="48" fill="white" stroke="gray"/><path d="M0,18 Q18,0 36,18 Q18,36 0,18" fill="none" stroke="gray"/></marker></defs><defs><marker orient="auto" markerHeight="36" markerWidth="57" refY="18" refX="39" id="ZERO_OR_MORE_END"><circle r="6" cy="18" cx="9" fill="white" stroke="gray"/><path d="M21,18 Q39,0 57,18 Q39,36 21,18" fill="none" stroke="gray"/></marker></defs><path style="stroke: gray; fill: none;" marker-start="url(#ZERO_OR_MORE_START)" marker-end="url(#ONLY_ONE_END)" d="M109.24249052810359,77.1376953125L103.192960856753,87.31201171875C97.14343118540239,97.486328125,85.0443718427012,117.8349609375,78.9948421713506,138.18359375C72.9453125,158.5322265625,72.9453125,178.880859375,72.9453125,189.05517578125L72.9453125,199.2294921875" class="er relationshipLine"/><path style="stroke: gray; fill: none;" marker-start="url(#ZERO_OR_MORE_START)" marker-end="url(#ONLY_ONE_END)" d="M153.16752867879745,77.1376953125L166.51004994066454,87.31201171875C179.85257120253164,97.486328125,206.53761372626582,117.8349609375,229.12901045797085,136.34261067708334C251.7204071896759,154.85026041666666,270.21815812935176,171.51692708333334,279.46703359918973,179.85026041666666L288.71590906902765,188.18359375" class="er relationshipLine"/><path style="stroke: gray; fill: none;" marker-start="url(#ZERO_OR_MORE_START)" marker-end="url(#ONLY_ONE_END)" d="M388.76171875,88.18359375L388.76171875,96.51692708333333C388.76171875,104.85026041666667,388.76171875,121.51692708333333,384.3799878293573,138.18359375C379.9982569087145,154.85026041666666,371.23479506742905,171.51692708333334,366.85306414678627,179.85026041666666L362.47133322614354,188.18359375" class="er relationshipLine"/><g transform="translate(271.15234375,188.18359375 )" id="entity-habits-41cf78ce-7cc2-49e3-adf4-080589807a48"><rect height="90.18359375" width="135.21875" y="0" x="0" class="er entityBox"/><text style="dominant-baseline: middle; text-anchor: middle; font-size: 12px;" transform="translate(67.609375,12)" y="0" x="0" id="text-entity-habits-41cf78ce-7cc2-49e3-adf4-080589807a48" class="er entityLabel">habits</text><rect height="22.091796875" width="53.671875" y="24" x="0" class="er attributeBoxOdd"/><text style="dominant-baseline: middle; font-size: 10.2px;" transform="translate(5,35.0458984375)" y="0" x="0" id="text-entity-habits-41cf78ce-7cc2-49e3-adf4-080589807a48-attr-1-type" class="er entityLabel">String</text><rect height="22.091796875" width="59.984375" y="24" x="53.671875" class="er attributeBoxOdd"/><text style="dominant-baseline: middle; font-size: 10.2px;" transform="translate(58.671875,35.0458984375)" y="0" x="0" id="text-entity-habits-41cf78ce-7cc2-49e3-adf4-080589807a48-attr-1-name" class="er entityLabel">id</text><rect height="22.091796875" width="21.5625" y="24" x="113.65625" class="er attributeBoxOdd"/><text style="dominant-baseline: middle; font-size: 10.2px;" transform="translate(118.65625,35.0458984375)" y="0" x="0" id="text-entity-habits-41cf78ce-7cc2-49e3-adf4-080589807a48-attr-1-key" class="er entityLabel">PK</text><rect height="22.091796875" width="53.671875" y="46.091796875" x="0" class="er attributeBoxEven"/><text style="dominant-baseline: middle; font-size: 10.2px;" transform="translate(5,57.1376953125)" y="0" x="0" id="text-entity-habits-41cf78ce-7cc2-49e3-adf4-080589807a48-attr-2-type" class="er entityLabel">String</text><rect height="22.091796875" width="59.984375" y="46.091796875" x="53.671875" class="er attributeBoxEven"/><text style="dominant-baseline: middle; font-size: 10.2px;" transform="translate(58.671875,57.1376953125)" y="0" x="0" id="text-entity-habits-41cf78ce-7cc2-49e3-adf4-080589807a48-attr-2-name" class="er entityLabel">title</text><rect height="22.091796875" width="21.5625" y="46.091796875" x="113.65625" class="er attributeBoxEven"/><text style="dominant-baseline: middle; font-size: 10.2px;" transform="translate(118.65625,57.1376953125)" y="0" x="0" id="text-entity-habits-41cf78ce-7cc2-49e3-adf4-080589807a48-attr-2-key" class="er entityLabel"/><rect height="22" width="53.671875" y="68.18359375" x="0" class="er attributeBoxOdd"/><text style="dominant-baseline: middle; font-size: 10.2px;" transform="translate(5,79.18359375)" y="0" x="0" id="text-entity-habits-41cf78ce-7cc2-49e3-adf4-080589807a48-attr-3-type" class="er entityLabel">DateTime</text><rect height="22" width="59.984375" y="68.18359375" x="53.671875" class="er attributeBoxOdd"/><text style="dominant-baseline: middle; font-size: 10.2px;" transform="translate(58.671875,79.18359375)" y="0" x="0" id="text-entity-habits-41cf78ce-7cc2-49e3-adf4-080589807a48-attr-3-name" class="er entityLabel">created_at</text><rect height="22" width="21.5625" y="68.18359375" x="113.65625" class="er attributeBoxOdd"/><text style="dominant-baseline: middle; font-size: 10.2px;" transform="translate(118.65625,79.18359375)" y="0" x="0" id="text-entity-habits-41cf78ce-7cc2-49e3-adf4-080589807a48-attr-3-key" class="er entityLabel"/></g><g transform="translate(20,199.2294921875 )" id="entity-days-24e0d02f-138f-45f9-a72e-5334e535670a"><rect height="68.091796875" width="105.890625" y="0" x="0" class="er entityBox"/><text style="dominant-baseline: middle; text-anchor: middle; font-size: 12px;" transform="translate(52.9453125,12)" y="0" x="0" id="text-entity-days-24e0d02f-138f-45f9-a72e-5334e535670a" class="er entityLabel">days</text><rect height="22.091796875" width="53.671875" y="24" x="0" class="er attributeBoxOdd"/><text style="dominant-baseline: middle; font-size: 10.2px;" transform="translate(5,35.0458984375)" y="0" x="0" id="text-entity-days-24e0d02f-138f-45f9-a72e-5334e535670a-attr-1-type" class="er entityLabel">String</text><rect height="22.091796875" width="30.65625" y="24" x="53.671875" class="er attributeBoxOdd"/><text style="dominant-baseline: middle; font-size: 10.2px;" transform="translate(58.671875,35.0458984375)" y="0" x="0" id="text-entity-days-24e0d02f-138f-45f9-a72e-5334e535670a-attr-1-name" class="er entityLabel">id</text><rect height="22.091796875" width="21.5625" y="24" x="84.328125" class="er attributeBoxOdd"/><text style="dominant-baseline: middle; font-size: 10.2px;" transform="translate(89.328125,35.0458984375)" y="0" x="0" id="text-entity-days-24e0d02f-138f-45f9-a72e-5334e535670a-attr-1-key" class="er entityLabel">PK</text><rect height="22" width="53.671875" y="46.091796875" x="0" class="er attributeBoxEven"/><text style="dominant-baseline: middle; font-size: 10.2px;" transform="translate(5,57.091796875)" y="0" x="0" id="text-entity-days-24e0d02f-138f-45f9-a72e-5334e535670a-attr-2-type" class="er entityLabel">DateTime</text><rect height="22" width="30.65625" y="46.091796875" x="53.671875" class="er attributeBoxEven"/><text style="dominant-baseline: middle; font-size: 10.2px;" transform="translate(58.671875,57.091796875)" y="0" x="0" id="text-entity-days-24e0d02f-138f-45f9-a72e-5334e535670a-attr-2-name" class="er entityLabel">date</text><rect height="22" width="21.5625" y="46.091796875" x="84.328125" class="er attributeBoxEven"/><text style="dominant-baseline: middle; font-size: 10.2px;" transform="translate(89.328125,57.091796875)" y="0" x="0" id="text-entity-days-24e0d02f-138f-45f9-a72e-5334e535670a-attr-2-key" class="er entityLabel"/></g><g transform="translate(72.9453125,31.0458984375 )" id="entity-dayhabits-8c2d4872-b14f-46c7-ad36-f72f84400527"><rect height="46.091796875" width="100" y="0" x="0" class="er entityBox"/><text style="dominant-baseline: middle; text-anchor: middle; font-size: 12px;" transform="translate(50,12)" y="0" x="0" id="text-entity-dayhabits-8c2d4872-b14f-46c7-ad36-f72f84400527" class="er entityLabel">day_habits</text><rect height="22.091796875" width="44.302083333333336" y="24" x="0" class="er attributeBoxOdd"/><text style="dominant-baseline: middle; font-size: 10.2px;" transform="translate(5,35.0458984375)" y="0" x="0" id="text-entity-dayhabits-8c2d4872-b14f-46c7-ad36-f72f84400527-attr-1-type" class="er entityLabel">String</text><rect height="22.091796875" width="26.364583333333332" y="24" x="44.302083333333336" class="er attributeBoxOdd"/><text style="dominant-baseline: middle; font-size: 10.2px;" transform="translate(49.302083333333336,35.0458984375)" y="0" x="0" id="text-entity-dayhabits-8c2d4872-b14f-46c7-ad36-f72f84400527-attr-1-name" class="er entityLabel">id</text><rect height="22.091796875" width="29.333333333333332" y="24" x="70.66666666666667" class="er attributeBoxOdd"/><text style="dominant-baseline: middle; font-size: 10.2px;" transform="translate(75.66666666666667,35.0458984375)" y="0" x="0" id="text-entity-dayhabits-8c2d4872-b14f-46c7-ad36-f72f84400527-attr-1-key" class="er entityLabel">PK</text></g><g transform="translate(327.68359375,20 )" id="entity-habitweekdays-e925808e-fa0a-4972-9fad-abd3744f4caf"><rect height="68.18359375" width="122.15625" y="0" x="0" class="er entityBox"/><text style="dominant-baseline: middle; text-anchor: middle; font-size: 12px;" transform="translate(61.078125,12)" y="0" x="0" id="text-entity-habitweekdays-e925808e-fa0a-4972-9fad-abd3744f4caf" class="er entityLabel">habit_week_days</text><rect height="22.091796875" width="39.453125" y="24" x="0" class="er attributeBoxOdd"/><text style="dominant-baseline: middle; font-size: 10.2px;" transform="translate(5,35.0458984375)" y="0" x="0" id="text-entity-habitweekdays-e925808e-fa0a-4972-9fad-abd3744f4caf-attr-1-type" class="er entityLabel">String</text><rect height="22.091796875" width="58.21875" y="24" x="39.453125" class="er attributeBoxOdd"/><text style="dominant-baseline: middle; font-size: 10.2px;" transform="translate(44.453125,35.0458984375)" y="0" x="0" id="text-entity-habitweekdays-e925808e-fa0a-4972-9fad-abd3744f4caf-attr-1-name" class="er entityLabel">id</text><rect height="22.091796875" width="24.484375" y="24" x="97.671875" class="er attributeBoxOdd"/><text style="dominant-baseline: middle; font-size: 10.2px;" transform="translate(102.671875,35.0458984375)" y="0" x="0" id="text-entity-habitweekdays-e925808e-fa0a-4972-9fad-abd3744f4caf-attr-1-key" class="er entityLabel">PK</text><rect height="22.091796875" width="39.453125" y="46.091796875" x="0" class="er attributeBoxEven"/><text style="dominant-baseline: middle; font-size: 10.2px;" transform="translate(5,57.1376953125)" y="0" x="0" id="text-entity-habitweekdays-e925808e-fa0a-4972-9fad-abd3744f4caf-attr-2-type" class="er entityLabel">Int</text><rect height="22.091796875" width="58.21875" y="46.091796875" x="39.453125" class="er attributeBoxEven"/><text style="dominant-baseline: middle; font-size: 10.2px;" transform="translate(44.453125,57.1376953125)" y="0" x="0" id="text-entity-habitweekdays-e925808e-fa0a-4972-9fad-abd3744f4caf-attr-2-name" class="er entityLabel">week_day</text><rect height="22.091796875" width="24.484375" y="46.091796875" x="97.671875" class="er attributeBoxEven"/><text style="dominant-baseline: middle; font-size: 10.2px;" transform="translate(102.671875,57.1376953125)" y="0" x="0" id="text-entity-habitweekdays-e925808e-fa0a-4972-9fad-abd3744f4caf-attr-2-key" class="er entityLabel"/></g><rect height="14" width="18.921875" y="127.97572326660156" x="70.5366439819336" class="er relationshipLabelBox"/><text style="text-anchor: middle; dominant-baseline: middle; font-size: 12px;" y="134.97572326660156" x="79.9975814819336" id="rel1" class="er relationshipLabel">day</text><rect height="14" width="27.734375" y="123.87838745117188" x="208.54116821289062" class="er relationshipLabelBox"/><text style="text-anchor: middle; dominant-baseline: middle; font-size: 12px;" y="130.87838745117188" x="222.40835571289062" id="rel2" class="er relationshipLabel">habit</text><rect height="14" width="27.734375" y="133.2885284423828" x="369.9364013671875" class="er relationshipLabelBox"/><text style="text-anchor: middle; dominant-baseline: middle; font-size: 12px;" y="140.2885284423828" x="383.8035888671875" id="rel3" class="er relationshipLabel">habit</text></svg>